<svg xmlns="http://www.w3.org/2000/svg" width="55.224" height="46.416" viewBox="0 0 55.224 46.416"><path d="M56.777,50.669H25.688a2.157,2.157,0,1,1,0-4.314H41.362C53.1,46.6,63.471,36.231,63.22,24.485a4.256,4.256,0,0,0-4.246-4.245H21.4c-1.02-8-4.056-9.033-9.635-8.175-1.294.413-3.621-.383-3.765,1.387.217,1.938,2.785.905,4.066.894,6.042-1.087,6.178,1.223,7.248,7.256,0,.009,4.4,22.92,4.4,22.926a4.449,4.449,0,0,0,.575,8.2,3.785,3.785,0,1,0,6.858.243H45.359a3.785,3.785,0,1,0,6.969,0h4.449a1.15,1.15,0,0,0,0-2.3Zm2.2-28.127a1.948,1.948,0,0,1,1.945,1.945A19.672,19.672,0,0,1,41.362,44.054H25.976l-.369-1.921L21.842,22.541ZM48.839,55.932a1.467,1.467,0,1,1,1.467-1.467A1.467,1.467,0,0,1,48.839,55.932Zm-21.167,0a1.467,1.467,0,1,1,1.467-1.467A1.467,1.467,0,0,1,27.672,55.932Z" transform="translate(-8 -11.816)" fill="#fff"/><path d="M24.1,26.04H34.684a1.15,1.15,0,0,0,0-2.3H24.1a1.15,1.15,0,1,0,0,2.3Zm0,3.968H34.684a1.15,1.15,0,1,0,0-2.3H24.1a1.15,1.15,0,1,0,0,2.3Z" transform="translate(-5.751 -10.023)" fill="#fff"/></svg>