<svg xmlns="http://www.w3.org/2000/svg" width="105.316" height="88.518" viewBox="0 0 105.316 88.518"><path d="M101.022,85.911H41.731a4.114,4.114,0,1,1,0-8.227H71.623c22.393.465,42.165-19.306,41.684-41.706a8.117,8.117,0,0,0-8.1-8.1H33.555c-1.946-15.25-7.736-17.227-18.374-15.59-2.468.788-6.906-.731-7.181,2.646.415,3.7,5.311,1.727,7.753,1.7,11.522-2.073,11.781,2.332,13.822,13.837,0,.018,8.4,43.709,8.4,43.722a8.484,8.484,0,0,0,1.1,15.634A7.218,7.218,0,1,0,52.15,90.3h27.1a7.218,7.218,0,1,0,13.291,0h8.484a2.194,2.194,0,1,0,0-4.388ZM105.21,32.27a3.714,3.714,0,0,1,3.71,3.71A37.516,37.516,0,0,1,71.623,73.3H42.282l-.7-3.664L34.4,32.27ZM85.884,95.948a2.8,2.8,0,1,1,2.8-2.8A2.8,2.8,0,0,1,85.884,95.948Zm-40.368,0a2.8,2.8,0,1,1,2.8-2.8A2.8,2.8,0,0,1,45.516,95.948Z" transform="translate(-8 -11.816)"/></svg>