<svg xmlns="http://www.w3.org/2000/svg" width="28.869" height="24.416" viewBox="0 0 28.869 24.416"><g transform="translate(0 0)"><path d="M30.833,30.97H28.952V14.694a.6.6,0,0,0-.6-.6H24.7a.6.6,0,0,0-.6.6V30.97h-2.61V18.045a.6.6,0,0,0-.6-.6H17.269a.6.6,0,0,0-.6.6V30.97H14.074V22.6a.6.6,0,0,0-.6-.6H9.854a.6.6,0,0,0-.6.6V30.97H7.268v-20.3a.6.6,0,0,0-1.206,0v20.9a.6.6,0,0,0,.6.6h24.1a.6.6,0,1,0,0-1.206ZM25.3,15.3h2.441V30.97H25.3Zm-7.433,3.352h2.411V30.97H17.872Zm-7.445,4.557h2.411V30.97H10.427ZM3.1,12.976H4.188a.6.6,0,1,0,0-1.206H3.1a.6.6,0,1,0,0,1.206Zm0,3.611H4.188a.6.6,0,1,0,0-1.206H3.1a.6.6,0,1,0,0,1.206Zm0,3.6H4.188a.6.6,0,1,0,0-1.206H3.1a.6.6,0,1,0,0,1.206Zm0,3.611H4.188a.6.6,0,1,0,0-1.206H3.1a.6.6,0,1,0,0,1.206Zm0,3.611H4.188a.6.6,0,1,0,0-1.206H3.1a.6.6,0,1,0,0,1.206Zm0,3.611H4.188a.6.6,0,1,0,0-1.206H3.1a.6.6,0,1,0,0,1.206Z" transform="translate(-2.5 -7.759)"/><path d="M14.8,15.667a.606.606,0,0,0,.127,1.2h.115c.38-.078,8.789-1.808,14.661-8.15l-.042.561a.6.6,0,0,0,.561.639h.042a.6.6,0,0,0,.6-.567L31,6.884a.6.6,0,0,0-.7-.639l-2.411.4a.61.61,0,1,0,.193,1.206l.868-.139C23.352,13.931,14.889,15.655,14.8,15.667Z" transform="translate(-7.191 -6.237)"/></g></svg>