<svg xmlns="http://www.w3.org/2000/svg" width="23.596" height="23.596" viewBox="0 0 23.596 23.596">
  <path id="_5073030131a0322b55556f6535b78689" data-name="5073030131a0322b55556f6535b78689" d="M54.543,47.333H50.611a3.277,3.277,0,1,0,0,6.554h3.933a3.277,3.277,0,1,0,0-6.554Zm0,5.244H50.611a1.966,1.966,0,0,1,0-3.933h3.933a1.966,1.966,0,0,1,0,3.933Zm0,3.933H50.611a3.277,3.277,0,0,0-3.277,3.277v7.865a3.277,3.277,0,0,0,3.277,3.277h3.933a3.277,3.277,0,0,0,3.277-3.277V59.787A3.277,3.277,0,0,0,54.543,56.509ZM56.51,67.652a1.966,1.966,0,0,1-1.966,1.966H50.611a1.966,1.966,0,0,1-1.966-1.966V59.787a1.966,1.966,0,0,1,1.966-1.966h3.933a1.966,1.966,0,0,1,1.966,1.966Zm11.143-3.277H63.719a3.277,3.277,0,1,0,0,6.554h3.933a3.277,3.277,0,1,0,0-6.554Zm0,5.244H63.719a1.966,1.966,0,1,1,0-3.933h3.933a1.966,1.966,0,1,1,0,3.933Zm0-22.285H63.719a3.277,3.277,0,0,0-3.277,3.277v7.865a3.277,3.277,0,0,0,3.277,3.277h3.933a3.277,3.277,0,0,0,3.277-3.277V50.611A3.277,3.277,0,0,0,67.652,47.333Zm1.966,11.142a1.966,1.966,0,0,1-1.966,1.966H63.719a1.966,1.966,0,0,1-1.966-1.966V50.611a1.966,1.966,0,0,1,1.966-1.966h3.933a1.966,1.966,0,0,1,1.966,1.966Z" transform="translate(-47.333 -47.333)"/>
</svg>
