<svg xmlns="http://www.w3.org/2000/svg" width="27.111" height="22.787" viewBox="0 0 27.111 22.787"><path d="M31.946,30.89H16.683a1.059,1.059,0,1,1,0-2.118h7.695A10.786,10.786,0,0,0,35.109,18.036a2.09,2.09,0,0,0-2.085-2.084H14.578c-.5-3.926-1.991-4.435-4.73-4.013-.635.2-1.778-.188-1.848.681.107.952,1.367.444,2,.439,2.966-.534,3.033.6,3.558,3.562,0,0,2.161,11.252,2.162,11.255A2.184,2.184,0,0,0,16,31.9a1.858,1.858,0,1,0,3.367.119h6.975a1.858,1.858,0,1,0,3.421,0h2.184a.565.565,0,1,0,0-1.13Zm1.078-13.809a.956.956,0,0,1,.955.955,9.658,9.658,0,0,1-9.6,9.606H16.825l-.181-.943L14.8,17.081ZM28.049,33.474a.72.72,0,1,1,.72-.72A.72.72,0,0,1,28.049,33.474Zm-10.392,0a.72.72,0,1,1,.72-.72A.72.72,0,0,1,17.658,33.474Z" transform="translate(-8 -11.816)"/><path d="M23.515,24.869h5.2a.565.565,0,0,0,0-1.13h-5.2a.565.565,0,1,0,0,1.13Zm0,1.948h5.2a.565.565,0,1,0,0-1.13h-5.2a.565.565,0,1,0,0,1.13Z" transform="translate(-14.507 -17.005)"/></svg>