<svg xmlns="http://www.w3.org/2000/svg" width="25.057" height="27.806" viewBox="0 0 25.057 27.806"><g transform="translate(0.76 0.75)"><g transform="translate(0 0)"><g transform="translate(0 0)"><g transform="translate(0 0)"><path d="M3.461,0A3.461,3.461,0,1,1,0,3.461,3.461,3.461,0,0,1,3.461,0Z" transform="translate(8.307 9.692)" fill="none" stroke="#000" stroke-linecap="round" stroke-linejoin="round" stroke-width="1.5"/><path d="M23.077,6.577h0A3.411,3.411,0,0,0,18.4,5.315a2.137,2.137,0,0,1-3.2-1.864A3.439,3.439,0,0,0,11.768,0h0A3.439,3.439,0,0,0,8.342,3.45a2.136,2.136,0,0,1-3.2,1.864A3.412,3.412,0,0,0,.459,6.577,3.464,3.464,0,0,0,1.714,11.29a2.16,2.16,0,0,1,0,3.727A3.464,3.464,0,0,0,.459,19.729a3.413,3.413,0,0,0,4.679,1.264h0a2.135,2.135,0,0,1,3.2,1.863h0a3.439,3.439,0,0,0,3.426,3.45h0a3.439,3.439,0,0,0,3.426-3.45h0a2.136,2.136,0,0,1,3.2-1.863,3.413,3.413,0,0,0,4.679-1.264,3.464,3.464,0,0,0-1.253-4.713h0a2.16,2.16,0,0,1,0-3.727A3.463,3.463,0,0,0,23.077,6.577Z" fill="none" stroke="#000" stroke-linecap="round" stroke-linejoin="round" stroke-width="1.5"/></g></g></g></g></svg>