<svg xmlns="http://www.w3.org/2000/svg" width="22.915" height="21.84" viewBox="0 0 22.915 21.84"><path d="M27.4,30.264c3.394,0,6.539-2.755,6.539-6.115a6.115,6.115,0,1,0-12.231-.034C21.709,27.475,24.006,30.264,27.4,30.264Zm.424-10.651a4.5,4.5,0,1,1-4.5,4.536A4.5,4.5,0,0,1,27.824,19.613ZM17.206,39.84h21.3a.818.818,0,0,0,.806-.806,7.715,7.715,0,0,0-7.694-7.694H24.094A7.715,7.715,0,0,0,16.4,39.034.818.818,0,0,0,17.206,39.84Zm6.888-6.888h7.526a6.06,6.06,0,0,1,6.014,5.275H18.08A6.06,6.06,0,0,1,24.094,32.952Z" transform="translate(-16.4 -18)"/></svg>