<svg xmlns="http://www.w3.org/2000/svg" width="17.642" height="21.489" viewBox="0 0 17.642 21.489"><path d="M20.878,6.532a2.24,2.24,0,0,0-2.24-2.052h-1.03a4.48,4.48,0,0,0-8.96,0H7.609a2.24,2.24,0,0,0-2.24,2.052L4.312,19.075a2.24,2.24,0,0,0,2.24,2.415H19.7a2.24,2.24,0,0,0,2.24-2.419ZM13.128.9A3.584,3.584,0,0,1,16.712,4.48H9.544A3.584,3.584,0,0,1,13.128.9ZM19.7,20.607H6.556A1.344,1.344,0,0,1,5.212,19.16L6.265,6.617A1.344,1.344,0,0,1,7.609,5.385H8.648V8.073H8.2a.448.448,0,1,0,0,.9H9.992a.448.448,0,1,0,0-.9H9.544v-2.7h7.168V8.064h-.448a.448.448,0,0,0,0,.9h1.792a.448.448,0,0,0,0-.9h-.448V5.376h1.039a1.344,1.344,0,0,1,1.344,1.232l1.053,12.543A1.344,1.344,0,0,1,19.7,20.607Z" transform="translate(-4.305)"/></svg>