<svg xmlns="http://www.w3.org/2000/svg" width="25.574" height="18.599" viewBox="0 0 25.574 18.599"><g transform="translate(0 -6)"><g transform="translate(0 6)"><path d="M24.993,6H.581A.581.581,0,0,0,0,6.581V24.018a.581.581,0,0,0,.581.581H24.993a.581.581,0,0,0,.581-.581V6.581A.581.581,0,0,0,24.993,6Zm-.581,16.031-7.2-7.2-.822.822,7.784,7.784H1.4l7.784-7.784-.822-.822-7.2,7.2V7.162H24.412Z" transform="translate(0 -6)"/></g><g transform="translate(0.744 6.744)"><path d="M24.869,8,14.043,14.688,3.217,8H2v.3l11.617,7.177a.885.885,0,0,0,.851,0L26.086,8.3V8Z" transform="translate(-2 -8)"/></g></g></svg>