<svg xmlns="http://www.w3.org/2000/svg" width="63" height="16.1" viewBox="0 0 63 16.1"><g transform="translate(-0.5 -24)"><path d="M49.2,28.2H45.8a.664.664,0,0,0-.5.4l-1.4,8.8a.265.265,0,0,0,.3.3H46a.265.265,0,0,0,.3-.3l.4-2.5a.458.458,0,0,1,.5-.4h1.1q3.45,0,3.9-3.3a2.621,2.621,0,0,0-.4-2.2,4.033,4.033,0,0,0-2.6-.8m.4,3.3c-.2,1.2-1.1,1.2-2,1.2H47l.4-2.3c0-.1.1-.2.3-.2h.2c.6,0,1.2,0,1.5.4.2.1.2.4.2.9" fill="#139ad6"/><path d="M24.7,28.2H21.3a.664.664,0,0,0-.5.4l-1.4,8.8a.265.265,0,0,0,.3.3h1.6a.664.664,0,0,0,.5-.4l.4-2.4a.458.458,0,0,1,.5-.4h1.1q3.45,0,3.9-3.3a2.621,2.621,0,0,0-.4-2.2,3.844,3.844,0,0,0-2.6-.8m.4,3.3c-.2,1.2-1.1,1.2-2,1.2h-.5l.4-2.3c0-.1.1-.2.3-.2h.2c.6,0,1.2,0,1.5.4a1.071,1.071,0,0,1,.1.9m9.9-.1H33.4c-.1,0-.3.1-.3.2l-.1.5-.1-.2a2.352,2.352,0,0,0-1.9-.7,3.843,3.843,0,0,0-3.7,3.3,2.981,2.981,0,0,0,.6,2.5,2.52,2.52,0,0,0,2.1.8,3.2,3.2,0,0,0,2.3-.9l-.1.5a.265.265,0,0,0,.3.3H34a.664.664,0,0,0,.5-.4l.9-5.6c-.1-.1-.3-.3-.4-.3m-2.3,3.2a1.934,1.934,0,0,1-1.9,1.6,1.6,1.6,0,0,1-1.1-.4,2.133,2.133,0,0,1-.3-1.2,1.784,1.784,0,0,1,2.9-1.2,1.746,1.746,0,0,1,.4,1.2" fill="#263b80"/><path d="M59.4,31.4H57.8c-.1,0-.3.1-.3.2l-.1.5-.1-.2a2.352,2.352,0,0,0-1.9-.7,3.843,3.843,0,0,0-3.7,3.3,2.981,2.981,0,0,0,.6,2.5,2.52,2.52,0,0,0,2.1.8,3.2,3.2,0,0,0,2.3-.9l-.1.5a.265.265,0,0,0,.3.3h1.5a.664.664,0,0,0,.5-.4l.9-5.6c-.1-.1-.2-.3-.4-.3m-2.3,3.2a1.934,1.934,0,0,1-1.9,1.6,1.6,1.6,0,0,1-1.1-.4,2.133,2.133,0,0,1-.3-1.2,1.784,1.784,0,0,1,2.9-1.2,1.148,1.148,0,0,1,.4,1.2" fill="#139ad6"/><path d="M43.7,31.4H42a.52.52,0,0,0-.4.2L39.4,35l-1-3.2a.462.462,0,0,0-.5-.3H36.3c-.2,0-.3.2-.3.4l1.8,5.3-1.7,2.4c-.1.2,0,.5.2.5h1.6a.52.52,0,0,0,.4-.2L43.8,32c.3-.3.1-.6-.1-.6" fill="#263b80"/><path d="M61.3,28.5l-1.4,9a.265.265,0,0,0,.3.3h1.4a.664.664,0,0,0,.5-.4l1.4-8.8a.265.265,0,0,0-.3-.3H61.6c-.1-.1-.2,0-.3.2" fill="#139ad6"/><path d="M12,25.2c-.7-.8-2-1.2-3.8-1.2h-5a.858.858,0,0,0-.7.6L.5,37.7a.458.458,0,0,0,.4.5H4l.8-4.9v.2a.858.858,0,0,1,.7-.6H7c2.9,0,5.1-1.2,5.8-4.5v-.3h0a3.492,3.492,0,0,0-.8-2.9" fill="#263b80"/><path d="M12.7,28.1v.3c-.7,3.4-2.9,4.5-5.8,4.5H5.4a.858.858,0,0,0-.7.6l-1,6.1a.366.366,0,0,0,.4.4H6.7a.56.56,0,0,0,.6-.5v-.1l.5-3.1v-.2a.56.56,0,0,1,.6-.5h.4c2.5,0,4.5-1,5-4a3.676,3.676,0,0,0-.5-3,1.024,1.024,0,0,0-.6-.5" fill="#139ad6"/><path d="M12,27.8c-.1,0-.2-.1-.3-.1a.367.367,0,0,1-.3-.1,5.283,5.283,0,0,0-1.3-.1H6.2a.367.367,0,0,0-.3.1.55.55,0,0,0-.3.5l-.8,5.2v.2a.858.858,0,0,1,.7-.6H7c2.9,0,5.1-1.2,5.8-4.5a.367.367,0,0,1,.1-.3c-.2-.1-.3-.2-.5-.2-.3-.1-.3-.1-.4-.1" fill="#232c65"/></g></svg>